<svg width="189" height="35" viewBox="0 0 189 35" fill="none" xmlns="http://www.w3.org/2000/svg">
<path fill-rule="evenodd" clip-rule="evenodd" d="M161.133 0.155435C160.466 0.35037 159.767 0.999856 159.481 1.69121C159.226 2.30681 159.201 3.62572 159.432 4.25903C160.051 5.95718 162.284 6.55815 163.699 5.40737C164.64 4.64247 164.973 2.90445 164.419 1.65598C164.068 0.867604 163.669 0.486156 162.894 0.200399C162.203 -0.0543451 161.88 -0.062759 161.133 0.155435ZM135 3.0079V5.91797H135.389C135.766 5.91797 135.778 5.88474 135.778 4.80972V3.7017L136.961 3.6399C138.064 3.58208 138.174 3.54331 138.594 3.05686C139.218 2.33471 139.217 1.45884 138.591 0.733816C138.143 0.215688 138.116 0.207932 136.569 0.153218L135 0.0980571V3.0079ZM140.406 2.91841C139.828 4.45175 139.356 5.75383 139.356 5.81209C139.356 5.87035 139.523 5.91797 139.727 5.91797C140.016 5.91797 140.155 5.77398 140.348 5.27468L140.598 4.6314H141.933H143.268L143.528 5.27314C143.742 5.79835 143.866 5.91509 144.214 5.91642L144.64 5.91797L144.351 5.15419C142.299 -0.265666 142.487 0.127966 141.949 0.129295L141.456 0.130623L140.406 2.91841ZM145.889 3.0079V5.91797H146.278C146.656 5.91797 146.667 5.88585 146.667 4.79223V3.66648L147.25 3.66913C147.802 3.67201 147.866 3.72828 148.443 4.72997C149.061 5.80455 149.258 5.98775 149.69 5.89139C149.882 5.84864 149.797 5.60563 149.284 4.72089C148.793 3.87581 148.689 3.58607 148.855 3.52869C148.976 3.48705 149.268 3.25335 149.504 3.00924C150.112 2.38057 150.102 1.45441 149.48 0.733816C149.032 0.215688 149.005 0.207932 147.458 0.153218L145.889 0.0980571V3.0079ZM151.178 0.441405C151.178 0.705896 151.305 0.762386 151.994 0.803366L152.811 0.851875L152.854 3.38493L152.897 5.91797H153.282H153.667V3.34483V0.771472H154.522C155.274 0.771472 155.378 0.732706 155.378 0.449829C155.378 0.144136 155.274 0.128187 153.278 0.128187C151.3 0.128187 151.178 0.146566 151.178 0.441405ZM166.267 3.02319V5.91797H166.656C167.038 5.91797 167.045 5.89671 167.045 4.6314V3.34483H168.445C169.732 3.34483 169.845 3.31935 169.845 3.02939C169.845 2.74363 169.716 2.70975 168.483 2.66744L167.122 2.62114V1.7364V0.851875L168.561 0.805584C169.872 0.763717 170 0.731377 170 0.443849C170 0.147902 169.885 0.128187 168.133 0.128187H166.267V3.02319ZM162.86 0.956887C163.082 1.04217 163.415 1.38906 163.599 1.72776C164.472 3.33442 163.537 5.32697 161.92 5.30393C160.736 5.28687 160.044 4.44621 160.044 3.02319C160.044 2.09215 160.325 1.41697 160.865 1.05147C161.482 0.633245 161.958 0.610656 162.86 0.956887ZM137.953 1.17131C138.359 1.55099 138.354 2.24833 137.943 2.63288C137.707 2.85351 137.379 2.9368 136.737 2.93923L135.856 2.94278L135.808 2.07731C135.737 0.791185 135.792 0.719636 136.789 0.80492C137.312 0.849888 137.76 0.990994 137.953 1.17131ZM148.842 1.17131C149.214 1.51887 149.252 2.25674 148.917 2.60319C148.639 2.8905 147.843 3.07215 147.197 2.99617C146.767 2.94522 146.742 2.90003 146.697 2.07731C146.626 0.791185 146.681 0.719636 147.678 0.80492C148.201 0.849888 148.649 0.990994 148.842 1.17131ZM142.507 2.29949C142.726 2.91863 142.954 3.55196 143.014 3.70658C143.111 3.95888 143.007 3.98812 142.017 3.98812C141.408 3.98812 140.911 3.92321 140.911 3.84369C140.911 3.48173 141.904 0.930962 142 1.04504C142.06 1.11593 142.288 1.68013 142.507 2.29949Z" fill="black"/>
<path fill-rule="evenodd" clip-rule="evenodd" d="M136.906 9.2318C135.657 9.68243 134.813 11.1631 135.036 12.5108C135.337 14.3304 137.262 15.4669 138.936 14.814C139.555 14.5731 140.417 13.787 140.417 13.4643C140.417 13.3969 140.139 13.2137 139.8 13.0577L139.183 12.7739L138.696 13.1929C138.067 13.7328 137.692 13.7216 137.128 13.1462C136.77 12.7809 136.672 12.5378 136.672 12.0189C136.672 11.4999 136.77 11.2568 137.128 10.8917C137.692 10.316 138.067 10.3051 138.696 10.845L139.183 11.2638L139.8 10.9801C140.139 10.8239 140.417 10.6137 140.417 10.5126C140.417 10.2122 139.443 9.36738 138.872 9.173C138.184 8.93869 137.675 8.95405 136.906 9.2318ZM143.328 9.22478C141.308 9.95996 140.746 12.5525 142.271 14.1084C143.969 15.8422 146.962 14.9026 147.358 12.5108C147.655 10.7127 146.148 8.97182 144.318 9.00035C144.103 9.00386 143.657 9.10477 143.328 9.22478ZM154.874 9.22478C152.854 9.95996 152.293 12.5525 153.817 14.1084C155.516 15.8422 158.509 14.9026 158.904 12.5108C159.202 10.7127 157.694 8.97182 155.864 9.00035C155.65 9.00386 155.204 9.10477 154.874 9.22478ZM180.932 9.22478C178.912 9.95996 178.351 12.5525 179.875 14.1084C181.574 15.8422 184.566 14.9026 184.962 12.5108C185.26 10.7127 183.752 8.97182 181.922 9.00035C181.707 9.00386 181.262 9.10477 180.932 9.22478ZM148.53 12.0189V14.8859H150.403H152.275V14.1692V13.4524H151.261H150.247V11.3022V9.15172H149.389H148.53V12.0189ZM160.077 12.0189V14.8859H160.935H161.793V14.0099C161.793 13.251 161.834 13.1339 162.094 13.1339C162.307 13.1339 162.51 13.3899 162.787 14.0099L163.18 14.8859H164.047C164.524 14.8859 164.914 14.8517 164.914 14.8098C164.914 14.7679 164.725 14.3396 164.493 13.8579L164.073 12.9823L164.419 12.6056C164.882 12.1027 165.07 11.3702 164.915 10.6714C164.648 9.45931 164.001 9.15172 161.72 9.15172H160.077V12.0189ZM166.764 12.0189L165.732 14.8859H166.633C167.463 14.8859 167.541 14.855 167.631 14.4877C167.724 14.1108 167.786 14.0895 168.815 14.0895C169.844 14.0895 169.906 14.1108 169.999 14.4877C170.089 14.851 170.171 14.8859 170.938 14.8859C171.401 14.8859 171.781 14.8324 171.782 14.7666C171.784 14.7008 171.348 13.4105 170.813 11.8994L169.841 9.15172H168.818H167.796L166.764 12.0189ZM172.716 12.0389V14.9261L174.471 14.8546C175.682 14.8054 176.378 14.7021 176.715 14.5217C178.514 13.5588 178.701 10.9966 177.063 9.74824C176.512 9.32833 175.665 9.16005 174.081 9.15566L172.716 9.15172V12.0389ZM145.371 10.9983C145.854 11.5501 145.845 12.4919 145.352 13.077C144.535 14.047 143.069 13.3846 143.069 12.0455C143.069 10.61 144.472 9.9718 145.371 10.9983ZM156.917 10.9983C157.4 11.5501 157.392 12.4919 156.899 13.077C156.081 14.047 154.616 13.3846 154.616 12.0455C154.616 10.61 156.019 9.9718 156.917 10.9983ZM182.975 10.9983C183.458 11.5501 183.45 12.4919 182.956 13.077C182.139 14.047 180.674 13.3846 180.674 12.0455C180.674 10.61 182.076 9.9718 182.975 10.9983ZM163.276 11.1429C163.276 11.5999 163.244 11.6227 162.535 11.6692L161.793 11.7179V11.1429V10.5679L162.535 10.6164C163.244 10.6629 163.276 10.6857 163.276 11.1429ZM176.037 10.9057C176.568 11.3318 176.705 12.0196 176.385 12.6512C176.114 13.1863 175.618 13.4524 174.89 13.4524H174.432V12.0189V10.5852H175.035C175.403 10.5852 175.794 10.7103 176.037 10.9057ZM169.084 11.4215C169.182 11.7938 169.309 12.2241 169.367 12.3772C169.457 12.6155 169.378 12.656 168.821 12.656C168.275 12.656 168.182 12.6111 168.248 12.3772C168.292 12.2241 168.413 11.7938 168.518 11.4215C168.623 11.0492 168.753 10.7445 168.807 10.7445C168.862 10.7445 168.986 11.0492 169.084 11.4215Z" fill="black"/>
<path fill-rule="evenodd" clip-rule="evenodd" d="M147.986 18.2228C146.726 18.6741 145.875 20.1571 146.1 21.5069C146.403 23.3294 148.345 24.4676 150.035 23.8137C150.658 23.5724 151.528 22.7851 151.528 22.4619C151.528 22.3944 151.248 22.2109 150.906 22.0547L150.284 21.7704L149.792 22.1901C149.158 22.7308 148.779 22.7196 148.21 22.1433C147.849 21.7774 147.75 21.5339 147.75 21.0143C147.75 20.4944 147.849 20.2509 148.21 19.8853C148.779 19.3087 149.158 19.2977 149.792 19.8385L150.284 20.2579L150.906 19.9738C151.248 19.8174 151.528 19.6069 151.528 19.5056C151.528 19.2048 150.545 18.3586 149.97 18.1639C149.276 17.9292 148.762 17.9446 147.986 18.2228ZM171.125 18.2228C169.866 18.6741 169.014 20.1571 169.238 21.5069C169.541 23.3294 171.484 24.4676 173.173 23.8137C173.798 23.5724 174.667 22.7851 174.667 22.4619C174.667 22.3944 174.387 22.2109 174.045 22.0547L173.423 21.7704L172.931 22.1901C172.296 22.7308 171.918 22.7196 171.349 22.1433C170.988 21.7774 170.889 21.5339 170.889 21.0143C170.889 20.4944 170.988 20.2509 171.349 19.8853C171.918 19.3087 172.296 19.2977 172.931 19.8385L173.423 20.2579L174.045 19.9738C174.387 19.8174 174.667 19.6069 174.667 19.5056C174.667 19.2048 173.684 18.3586 173.108 18.1639C172.414 17.9292 171.901 17.9446 171.125 18.2228ZM135 18.8604V19.5783H135.787H136.574V21.7321V23.8857H137.361H138.148V21.7321V19.5783H138.935H139.722V18.8604V18.1426H137.361H135V18.8604ZM140.824 21.0143V23.8857H142.949H145.074V23.1679V22.45H143.815C142.66 22.45 142.556 22.4234 142.556 22.131C142.556 21.8402 142.66 21.8119 143.736 21.8119H144.917V21.094V20.3762H143.736C142.582 20.3762 142.556 20.3672 142.556 19.9773C142.556 19.5851 142.576 19.5783 143.815 19.5783H145.074V18.8604V18.1426H142.949H140.824V21.0143ZM152.787 21.0143V23.8857H153.653H154.519V22.7614V21.6372L155.502 21.6845L156.486 21.7321L156.533 22.809L156.579 23.8857H157.359H158.139V21.0143V18.1426H157.352H156.565V19.1795V20.2166H155.542H154.519V19.1795V18.1426H153.653H152.787V21.0143ZM159.555 21.0143V23.8857H160.421H161.287V22.3316V20.7774L162.312 22.3316L163.338 23.8857H164.123H164.907V21.0143V18.1426H164.126H163.345L163.3 19.6183L163.255 21.094L162.254 19.6183L161.253 18.1426H160.404H159.555V21.0143ZM166.324 21.0143V23.8857H167.19H168.055V21.0143V18.1426H167.19H166.324V21.0143ZM176.217 21.0143L175.177 23.8857H176.085C176.922 23.8857 177.001 23.8548 177.092 23.4869C177.185 23.1094 177.25 23.0881 178.287 23.0881C179.324 23.0881 179.387 23.1094 179.482 23.4869C179.572 23.8508 179.655 23.8857 180.429 23.8857C180.895 23.8857 181.279 23.8321 181.281 23.7662C181.282 23.7003 180.842 22.408 180.302 20.8945L179.323 18.1426H178.29H177.259L176.217 21.0143ZM182.222 21.0143V23.8857H184.111H186V23.1679V22.45H184.977H183.954V20.2964V18.1426H183.088H182.222V21.0143ZM178.558 20.4159C178.657 20.7888 178.786 21.2197 178.844 21.3731C178.936 21.6117 178.855 21.6524 178.293 21.6524C177.742 21.6524 177.65 21.6073 177.716 21.3731C177.76 21.2197 177.881 20.7888 177.986 20.4159C178.093 20.043 178.224 19.7378 178.279 19.7378C178.334 19.7378 178.46 20.043 178.558 20.4159Z" fill="black"/>
<path fill-rule="evenodd" clip-rule="evenodd" d="M170.786 27.2192C169.966 27.5174 169.613 28.0115 169.609 28.8696C169.604 29.8098 170.174 30.3932 171.337 30.6417C172.385 30.8649 172.654 31.0271 172.531 31.3578C172.394 31.7166 171.532 31.6851 170.78 31.294C170.442 31.1182 170.15 30.9745 170.133 30.9745C170.116 30.9745 169.942 31.2368 169.748 31.5577L169.394 32.1409L169.74 32.4261C169.93 32.5833 170.473 32.7936 170.949 32.8944C172.556 33.2349 173.837 32.7347 174.158 31.6402C174.508 30.4454 173.785 29.5085 172.341 29.2878C171.553 29.1671 171.073 28.8692 171.236 28.602C171.395 28.3366 172.203 28.3757 172.773 28.6764C173.26 28.9334 173.265 28.9317 173.692 28.398C174.217 27.7423 174.107 27.5546 173.004 27.2199C172.036 26.9269 171.591 26.9267 170.786 27.2192ZM135.003 29.0969C135.008 31.3963 135.26 32.2047 136.123 32.6761C136.823 33.0584 138.495 33.0624 139.187 32.6834C140.111 32.1779 140.239 31.7932 140.3 29.3441L140.354 27.1395H139.483H138.611L138.567 29.1709C138.523 31.202 138.523 31.2025 138.092 31.4479C137.706 31.6688 137.618 31.6688 137.231 31.4479C136.801 31.2025 136.801 31.202 136.757 29.1709L136.713 27.1395H135.857H135L135.003 29.0969ZM141.733 30.0158V32.8918H142.594H143.456V31.3352V29.7785L144.475 31.3352L145.496 32.8918H146.276H147.057V30.0158V27.1395H146.28H145.502L145.458 28.6176L145.413 30.0957L144.417 28.6176L143.421 27.1395H142.577H141.733V30.0158ZM148.623 30.0158V32.8918H149.484H150.346V30.0158V27.1395H149.484H148.623V30.0158ZM152.043 30.0085L153.081 32.8918H154.107H155.134L156.109 30.1355C156.645 28.6196 157.083 27.3218 157.082 27.2513C157.08 27.1811 156.679 27.1453 156.192 27.1714L155.308 27.2194L154.758 29.017C154.456 30.0059 154.163 30.8147 154.107 30.8147C154.05 30.8147 153.751 30.0059 153.443 29.017L152.879 27.2194L151.943 27.1723L151.005 27.1252L152.043 30.0085ZM158.018 30.0158V32.8918H160.132H162.246V32.1728V31.4538H160.993C159.846 31.4538 159.741 31.4272 159.741 31.1342C159.741 30.8431 159.846 30.8147 160.915 30.8147H162.089V30.0957V29.3767H160.915C159.767 29.3767 159.741 29.3676 159.741 28.9772C159.741 28.5844 159.761 28.5775 160.993 28.5775H162.246V27.8585V27.1395H160.132H158.018V30.0158ZM163.499 30.0158V32.8918H164.36H165.221V32.013C165.221 31.2518 165.262 31.1342 165.523 31.1342C165.736 31.1342 165.94 31.3911 166.219 32.013L166.613 32.8918H167.482C167.961 32.8918 168.353 32.8575 168.353 32.8154C168.353 32.7734 168.163 32.3438 167.93 31.8605L167.509 30.9822L167.857 30.6043C168.32 30.0998 168.509 29.365 168.354 28.664C168.085 27.4481 167.437 27.1395 165.148 27.1395H163.499V30.0158ZM175.399 30.0158V32.8918H176.261H177.122V30.0158V27.1395H176.261H175.399V30.0158ZM178.061 27.8585V28.5775H178.844H179.627V30.7348V32.8918H180.41H181.193V30.7348V28.5775H181.976H182.759V27.8585V27.1395H180.41H178.061V27.8585ZM183.385 27.2282C183.385 27.2771 183.842 28.083 184.403 29.0192C185.393 30.6736 185.421 30.7524 185.421 31.8068V32.8918H186.204H186.987L186.991 31.7335C186.996 30.5944 187.013 30.5471 187.998 28.8973L189 27.2194L188.114 27.1703C187.627 27.1435 187.207 27.1794 187.184 27.2502C187.16 27.3213 186.922 27.7668 186.656 28.2402L186.172 29.1011L185.631 28.1204L185.089 27.1395H184.237C183.769 27.1395 183.385 27.1796 183.385 27.2282ZM166.709 29.137C166.709 29.5954 166.676 29.6183 165.965 29.665L165.221 29.7138V29.137V28.5602L165.965 28.6088C166.676 28.6555 166.709 28.6783 166.709 29.137Z" fill="black"/>
<line x1="125" y1="4.37114e-08" x2="125" y2="34" stroke="black" stroke-width="2"/>
<path fill-rule="evenodd" clip-rule="evenodd" d="M0.484384 0.480034C0.750834 0.744007 2.36466 2.28148 4.07084 3.89664L7.17292 6.83321H8.49822H9.82352V9.35499V11.8768H8.934H8.04449V14.4392V17.0017H8.934H9.82352V25.5025V34.0034H12.4921H15.1606V25.5432V17.083H21.9129H28.6652V25.5432V34.0034H31.3337H34.0023V25.5025V17.0017H34.8917H35.7813V14.4392V11.8768H34.8917H34.0023V9.35499V6.83321H35.3276H36.6529L39.755 3.89664C41.4611 2.28148 43.0749 0.744007 43.3413 0.480034L43.8257 0H21.9129H0L0.484384 0.480034ZM53.4909 1.11389C52.8993 1.21387 52.0169 1.50762 51.5132 1.77216C50.6427 2.22942 49.6462 3.2605 49.2167 4.14874C48.7057 5.20545 48.5989 5.70809 48.6036 7.03658C48.6073 8.09199 48.6264 8.23207 48.8633 8.94826C49.45 10.722 50.7442 12.0245 52.4622 12.5705C54.1148 13.0957 55.8671 12.9377 57.2007 12.1433C57.7161 11.8363 58.8279 10.7364 58.8279 10.5336C58.8279 10.4749 58.5278 10.2737 58.1608 10.0865L57.4936 9.74595L56.968 10.2623C56.3656 10.8541 55.7781 11.1704 55.0267 11.3075C53.7208 11.5458 52.243 11.0218 51.3883 10.0176C50.668 9.17132 50.3371 8.2154 50.3371 6.98094C50.3371 5.58655 50.6947 4.6688 51.5842 3.78089C52.492 2.87491 53.3249 2.55579 54.6197 2.6181C55.5636 2.66348 56.3735 3.0368 57.0416 3.73443L57.501 4.21406L58.2046 3.84766L58.908 3.48128L58.7308 3.22528C58.0525 2.2448 56.8008 1.43514 55.5765 1.18491C55.0012 1.06736 53.9731 1.0323 53.4909 1.11389ZM64.6503 1.17555C62.4662 1.64648 60.9011 3.13791 60.3597 5.26426C59.6089 8.21303 60.7844 11.0831 63.2351 12.2852C64.0943 12.7066 64.82 12.8675 65.8662 12.8685C66.903 12.8694 67.5959 12.7124 68.5318 12.2644C69.0848 11.9999 69.3469 11.8066 69.8732 11.2757C70.6368 10.5053 71.0197 9.86041 71.3273 8.82623C71.5131 8.20157 71.5459 7.93889 71.5507 7.03658C71.5575 5.75592 71.4271 5.15412 70.9111 4.08422C70.2462 2.70571 68.9649 1.66145 67.4401 1.25528C66.7658 1.07566 65.3069 1.03393 64.6503 1.17555ZM106.296 1.17555C105.609 1.32353 105.195 1.4772 104.518 1.83505C101.896 3.22161 100.854 6.84241 102.251 9.72106C102.963 11.1887 104.129 12.1609 105.77 12.6556C106.735 12.9464 108.175 12.9667 109.15 12.7031C110.016 12.4683 110.958 11.9557 111.588 11.3747L112.118 10.8862V8.77832V6.67052H109.45H106.781V7.44333V8.21612H108.601H110.42V9.22574V10.2353L110.165 10.4509C109.552 10.9705 108.389 11.385 107.54 11.3875C105.604 11.3931 103.959 10.0492 103.499 8.08491C103.314 7.29827 103.381 6.08734 103.647 5.3544C104.283 3.60997 105.698 2.60313 107.511 2.60313C108.546 2.60313 109.429 2.94951 110.198 3.65626C110.443 3.88241 110.669 4.06738 110.698 4.06738C110.727 4.06738 111.041 3.89916 111.396 3.69359L112.039 3.3198L111.71 2.92404C111.081 2.16784 110.07 1.52845 109.072 1.25511C108.417 1.07582 106.953 1.03385 106.296 1.17555ZM73.6869 1.26667C73.6537 1.30075 73.6262 3.88501 73.6262 7.00949V12.6903L75.9511 12.6896C77.2297 12.6893 78.5105 12.6508 78.7976 12.6039C81.7564 12.121 83.5808 9.96624 83.5808 6.95524C83.5808 4.1855 82.0476 2.17728 79.375 1.44571C78.834 1.29758 78.4636 1.27333 76.2544 1.24112C74.8757 1.22103 73.7201 1.23258 73.6869 1.26667ZM85.6753 6.95524V12.6903H86.5647H87.4542V6.95524V1.22021H86.5647H85.6753V6.95524ZM89.961 6.95247V12.6903H90.8094H91.6576L91.6786 8.34686L91.6997 4.00345L94.8113 8.34686L97.9239 12.6903H98.7535H99.5841V6.95524V1.22021H98.7357H97.8875L97.8665 5.50473L97.8454 9.78931L94.7685 5.52506L91.6917 1.26089L90.8264 1.23779L89.961 1.21469V6.95247ZM66.8245 2.68943C67.7839 2.91184 68.8041 3.70938 69.2823 4.61039C69.6043 5.2174 69.8259 6.17283 69.8242 6.94791C69.8192 9.27991 68.5003 11.0055 66.4816 11.3211C64.837 11.5784 63.2035 10.7922 62.4449 9.37819C61.9429 8.4426 61.7667 6.95434 62.0171 5.76577C62.3267 4.29655 63.4074 3.09227 64.7395 2.7319C65.2504 2.59369 66.318 2.57189 66.8245 2.68943ZM78.864 2.88849C80.3591 3.24301 81.4234 4.37578 81.7468 5.95531C81.8171 6.30015 81.8746 6.73942 81.8738 6.93148C81.8713 8.50369 81.0594 10.0056 79.8707 10.6387C79.0313 11.0857 78.6884 11.1447 76.9272 11.1447H75.3245V6.95524V2.76583L76.8407 2.76705C77.892 2.76785 78.5122 2.80512 78.864 2.88849ZM28.746 9.27365V11.8768H21.9129H15.0798V9.27365V6.67052H21.9129H28.746V9.27365ZM72.326 16.2332C68.9136 16.8548 66.5063 19.0227 65.6465 22.2486C65.4505 22.9844 65.4298 23.198 65.4298 24.4857C65.4298 25.7646 65.4512 25.9896 65.6409 26.6988C65.894 27.6453 66.3764 28.7101 66.8622 29.3945C67.2929 30.0013 68.3287 31.0082 68.9361 31.4102C71.0907 32.8365 74.0687 33.2513 76.6821 32.4893C79.5642 31.6491 81.5624 29.604 82.3395 26.6988C82.5295 25.9896 82.5506 25.7646 82.5506 24.4857C82.5506 23.198 82.5295 22.9844 82.3339 22.2486C81.999 20.9938 81.4412 19.9076 80.626 18.9238C79.844 17.9804 78.1661 16.9038 76.8795 16.52C75.5121 16.1119 73.6393 15.994 72.326 16.2332ZM102.756 16.2233C100.877 16.5833 99.4741 17.2881 98.2223 18.5007C95.8433 20.8045 95.13 24.6081 96.461 27.8945C97.1605 29.6239 98.7446 31.2526 100.495 32.0424C102.971 33.16 106.027 33.1332 108.456 31.9723C110.667 30.9155 112.118 29.1322 112.764 26.68C113.041 25.6304 113.08 23.83 112.851 22.7128C112.182 19.4447 109.975 17.1714 106.667 16.3406C105.805 16.1241 103.617 16.0585 102.756 16.2233ZM48.6389 24.4798V32.6205L51.9341 32.6186C56.5501 32.616 57.6212 32.5091 59.2085 31.8921C60.9756 31.2054 62.4546 29.8813 63.2565 28.2683C63.5877 27.6019 63.8884 26.6111 64.0071 25.7946C64.129 24.9564 64.064 23.1069 63.8876 22.3906C63.2425 19.7701 61.5552 17.9004 58.9897 16.9629C57.5246 16.4276 57.3284 16.409 52.7832 16.3724L48.6389 16.3392V24.4798ZM84.5432 18.0592V19.7675H87.0532H89.564L89.5398 23.7332C89.5164 27.6281 89.5132 27.7049 89.34 28.0298C88.795 29.0541 87.5925 29.4486 86.5623 28.9414C86.3173 28.8208 85.8079 28.4645 85.431 28.1497C85.0542 27.8347 84.7266 27.5785 84.7048 27.5801C84.6822 27.5817 84.4032 27.957 84.0846 28.4138C83.766 28.8707 83.3568 29.4521 83.1749 29.7059L82.8449 30.1672L83.4555 30.7814C84.5237 31.8557 85.8758 32.6269 87.1154 32.8691C87.823 33.0074 89.1298 32.9253 89.7994 32.7004C91.7321 32.0513 92.8868 30.894 93.4512 29.0399C93.6356 28.4322 93.6364 28.4203 93.6615 22.3909L93.6866 16.3509H89.1153H84.5432V18.0592ZM75.4248 20.0094C77.9591 20.8039 79.1494 24.1473 77.8426 26.8002C76.7865 28.9438 74.2158 29.7926 72.0388 28.717C70.4905 27.9519 69.6347 26.4644 69.6279 24.5264C69.6243 23.482 69.7339 22.9615 70.1309 22.1382C71.0494 20.2335 73.2793 19.3367 75.4248 20.0094ZM105.918 20.0385C107.822 20.7334 108.896 22.5145 108.776 24.7776C108.638 27.3891 106.91 29.1496 104.476 29.1566C103.59 29.1591 103.031 29.0295 102.313 28.655C101.303 28.1278 100.434 26.9468 100.144 25.7059C99.9964 25.0775 100.018 23.7449 100.186 23.1092C100.643 21.3752 101.92 20.1528 103.593 19.8483C104.235 19.7317 105.321 19.8206 105.918 20.0385ZM56.6041 20.1345C58.139 20.4601 59.2243 21.4917 59.6844 23.0621C59.8977 23.7904 59.8852 25.0939 59.6579 25.8279C59.2984 26.989 58.5568 27.9114 57.585 28.4063C56.74 28.8365 56.4246 28.8912 54.5219 28.9371L52.763 28.9795V24.4956V20.0115L54.4005 20.0129C55.5299 20.0139 56.2137 20.0517 56.6041 20.1345Z" fill="black"/>
</svg>
